#N canvas 827 239 527 327 12;
#X obj 1100 34 cnv 740 740 357 empty empty empty 20 12 0 14 #b3d399
#5a5a5a 0;
#X obj 1699 449 cnv 137 137 318 empty empty empty 20 12 0 14 #dae0e0
#5a5a5a 0;
#X obj 959 1129 cnv 150 150 118 empty empty empty 20 12 0 14 #99b2d3
#5a5a5a 0;
#X obj 228 1102 cnv 654 654 265 empty empty empty 20 12 0 14 #f4c745
#5a5a5a 0;
#X obj 95 871 cnv 481 481 204 empty empty empty 20 12 0 14 #d399d1
#5a5a5a 0;
#X obj 215 113 cnv 162 162 125 empty empty empty 20 12 0 14 #99ced3
#5a5a5a 0;
#X obj 598 41 cnv 216 216 93 empty empty empty 20 12 0 14 #d3d299 #5a5a5a
0;
#X obj 54 260 cnv 847 847 487 empty empty empty 20 12 0 14 #99aed3
#5a5a5a 0;
#X obj 950 442 cnv 703 703 659 empty empty empty 20 12 0 14 #99d3c3
#5a5a5a 0;
#N canvas 0 50 450 250 (subpatch) 0;
#X text 0 0 plugdatainfo <?xml version="1.0" encoding="UTF-8"?> <PlugDataInfo/>
;
#X coords 0 1 100 -1 1 1 1;
#X restore 0 0 graph;
#N canvas 0 50 450 250 (subpatch) 0;
#X array waveform1 100 float 1;
#A 0 0 0.0627905 0.125333 0.187381 0.24869 0.309017 0.368125 0.425779
0.481754 0.535827 0.587785 0.637424 0.684547 0.728969 0.770513 0.809017
0.844328 0.876307 0.904827 0.929776 0.951057 0.968583 0.982287 0.992115
0.998027 1 0.998027 0.992115 0.982287 0.968583 0.951056 0.929776 0.904827
0.876307 0.844328 0.809017 0.770513 0.728969 0.684547 0.637424 0.587785
0.535827 0.481754 0.425779 0.368124 0.309017 0.24869 0.187381 0.125333
0.0627905 -8.74228e-08 -0.0627906 -0.125333 -0.187381 -0.24869 -0.309017
-0.368125 -0.425779 -0.481754 -0.535827 -0.587786 -0.637424 -0.684547
-0.728969 -0.770513 -0.809017 -0.844328 -0.876307 -0.904827 -0.929777
-0.951056 -0.968583 -0.982287 -0.992115 -0.998027 -1 -0.998027 -0.992115
-0.982287 -0.968583 -0.951056 -0.929776 -0.904827 -0.876307 -0.844328
-0.809017 -0.770513 -0.728968 -0.684547 -0.637424 -0.587785 -0.535826
-0.481753 -0.425779 -0.368125 -0.309017 -0.24869 -0.187381 -0.125333
-0.0627904;
#X coords 0 1 99 -1 200 140 1;
#X restore 126 904 graph;
#N canvas 0 50 450 250 (subpatch) 0;
#X array pitch1 100 float 1;
#A 0 0 0 0 0 0 0 0 0 0 0.114286 0.128571 0.214286 0.238095 0.328571
0.142857 0.0428572 0.0428572 0.0428572 0.0571429 0.0714286 0.385714
0.342857 0 -0.157143 -0.147619 -0.138095 -0.114286 -0.0904762 -0.0666667
-0.0504762 -0.0342857 -0.0180952 -0.0019047 0.0273016 0.056508 0.0996825
0.118836 0.137989 0.153898 0.214286 0 0 0.0071429 0.0125 0.0178571
0.0232143 0.0297619 0.0857143 0.0857143 -0.0428572 -0.0428572 0.171429
-0.195238 -0.170476 -0.145714 -0.120952 -0.0961904 -0.0792857 -0.062381
-0.0454762 -0.0259921 -0.00650797 0.0129762 0.0324603 0.0519444 0.0701269
0.0883095 0.106492 0.157143 -0.114286 -0.121429 -0.128571 -0.128571
-0.128571 -0.128571 -0.109524 -0.0904762 -0.0603174 -0.0301587 -0.00582009
0.0185185 0.045679 0.157143 -0.0428572 -0.157143 -0.142857 -0.114286
0 0 0 0 0 0 0 0 0 0 0 0 0;
#X coords 0 1 99 -1 200 140 1;
#X restore 187 295 graph;
#X obj 85 346 bng 25 250 50 0 empty empty empty 17 7 0 10 #e4e4e4 #5a5a5a
#5a5a5a;
#X floatatom 258 552 7 0.01 3.40282e+38 0 - - - 12;
#X text 228 269 Pitch 1 Cycle Freq;
#N canvas 0 50 450 250 (subpatch) 0;
#X array pitch2 100 float 1;
#A 0 0 0 0 0 0 0 0 0 0 0 0 0 0 0 0 0 0 0 0 0 0 0 0 0 0 0 0 0 0 0 0
0 0 0 0 0 0 0 0 0 0 0 0 0 0 0 0 0 0 0 0 0 0 0 0 0 0 0 0 0 0 0 0 0 0
0 0 0 0 0 0 0 0 0 0 0 0 0 0 0 0 0 0 0 0 0 0 0 0 0 0 0 0 0 0 0 0 0 0
0;
#X coords 0 1 99 -1 200 140 1;
#X restore 553 295 graph;
#X text 85 317 Reset Pitch 1;
#X floatatom 574 563 5 0.01 3.40282e+38 0 - - - 12;
#X text 586 269 Pitch 2 Cycle Freq;
#X text 759 310 Reset Pitch 2;
#X obj 1015 1164 *~ 0.2;
#X obj 772 335 bng 25 250 50 0 empty empty empty 17 7 0 10 #e4e4e4
#5a5a5a #5a5a5a;
#X msg 127 349 1;
#X msg 815 339 1, f 5;
#X text 615 562 Pitch 2 Cycle Freq;
#N canvas 0 50 450 250 (subpatch) 0;
#X array transfer 100 float 1;
#A 0 0.9 1.9 2.9 3.9 4.9 5.9 6.9 7.9 8.9 9.9 10.9 11.9 12.9 13.9 14.9
15.9 16.9 17.9 18.9 19.9 20.9 21.9 22.9 23.9 24.9 25.9 26.9 27.9 28.9
29.9 30.9 31.9 32.9 33.9 34.9 35.9 36.9 37.9 38.9 39.9 40.9 41.9 42.9
43.9 44.9 45.9 46.9 47.9 48.9 49.9 50.9 51.9 52.9 53.9 54.9 55.9 56.9
57.9 58.9 59.9 60.9 61.9 62.9 63.9 64.9 65.9 66.9 67.9 68.9 69.9 70.9
71.9 72.9 73.9 74.9 75.9 76.9 77.9 78.9 79.9 80.9 81.9 82.9 83.9 84.9
85.9 86.9 87.9 88.9 89.9 90.9 91.9 92.9 93.9 94.9 95.9 96.9 97.9 98.9
100;
#X coords 0 100 99 0 200 140 1;
#X restore 1132 124 graph;
#X obj 1193 284 bng 25 250 50 0 empty empty empty 17 7 0 10 #e4e4e4
#5a5a5a #5a5a5a;
#N canvas 0 50 450 250 (subpatch) 0;
#X array transfer-p1 100 float 1;
#A 0 0.9 1.9 2.9 3.9 4.9 5.9 6.9 7.9 8.9 9.9 10.9 11.9 12.9 13.9 14.9
15.9 16.9 17.9 18.9 19.9 20.9 21.9 22.9 23.9 24.9 25.9 26.9 27.9 28.9
29.9 30.9 31.9 32.9 33.9 34.9 35.9 36.9 37.9 38.9 39.9 40.9 41.9 42.9
43.9 44.9 45.9 46.9 47.9 48.9 49.9 50.9 51.9 52.9 53.9 54.9 55.9 56.9
57.9 58.9 59.9 60.9 61.9 62.9 63.9 64.9 65.9 66.9 67.9 68.9 69.9 70.9
71.9 72.9 73.9 74.9 75.9 76.9 77.9 78.9 79.9 80.9 81.9 82.9 83.9 84.9
85.9 86.9 87.9 88.9 89.9 90.9 91.9 92.9 93.9 94.9 95.9 96.9 97.9 98.9
100;
#X coords 0 100 99 0 200 140 1;
#X restore 1380 124 graph;
#N canvas 0 50 450 250 (subpatch) 0;
#X array transfer-p2 100 float 1;
#A 0 0.9 1.9 2.9 3.9 4.9 5.9 6.9 7.9 8.9 9.9 10.9 11.9 12.9 13.9 14.9
15.9 16.9 17.9 18.9 19.9 20.9 21.9 22.9 23.9 24.9 25.9 26.9 27.9 28.9
29.9 30.9 31.9 32.9 33.9 34.9 35.9 36.9 37.9 38.9 39.9 40.9 41.9 42.9
43.9 44.9 45.9 46.9 47.9 48.9 49.9 50.9 51.9 52.9 53.9 54.9 55.9 56.9
57.9 58.9 59.9 60.9 61.9 62.9 63.9 64.9 65.9 66.9 67.9 68.9 69.9 70.9
71.9 72.9 73.9 74.9 75.9 76.9 77.9 78.9 79.9 80.9 81.9 82.9 83.9 84.9
85.9 86.9 87.9 88.9 89.9 90.9 91.9 92.9 93.9 94.9 95.9 96.9 97.9 98.9
100;
#X coords 0 100 99 0 200 140 1;
#X restore 1626 124 graph;
#X obj 1413 284 bng 25 250 50 0 empty empty empty 17 7 0 10 #e4e4e4
#5a5a5a #5a5a5a;
#X obj 1645 284 bng 25 250 50 0 empty empty empty 17 7 0 10 #e4e4e4
#5a5a5a #5a5a5a;
#X text 1442 283 Reset;
#X text 1226 283 Reset;
#X text 1675 283 Reset;
#X text 1425 40 Transfer Functions;
#X obj 369 911 bng 25 250 50 0 empty empty empty 17 7 0 10 #e4e4e4
#5a5a5a #5a5a5a;
#N canvas 733 172 450 300 (subpatch) 1;
#X obj 5 5 cnv 160 160 206 empty empty empty 20 12 0 14 #a8d6ee #5a5a5a
0;
#X obj 10 165 crusher~;
#X floatatom 35 124 7 -0.01 1 0 - - - 12;
#X floatatom 101 124 7 -0.01 1 0 - - - 12;
#X text 34 98 Crush;
#X text 91 98 Decimate;
#X obj 28 31 bng 25 250 50 0 empty empty empty 17 7 0 10 #e4e4e4 #5a5a5a
#5a5a5a;
#X text 58 31 Reset;
#X msg 32 65 0;
#X text 43 7 BitCrusher;
#X obj 45 311 inlet~;
#X obj 5 349 outlet~;
#N canvas 0 50 450 250 (subpatch) 0;
#X text 0 0 plugdatainfo <?xml version="1.0" encoding="UTF-8"?> <PlugDataInfo/>
;
#X coords 0 1 100 -1 1 1 1;
#X restore 0 0 graph;
#N canvas 0 50 450 250 (subpatch) 0;
#X array BitcrushSettings 4 float 3;
#A 0 0 0 0.4 0;
#X coords 0 1 4 0 106 48 1;
#X restore 492 231 graph;
#X obj 321 29 loadbang;
#X msg 233 94 1;
#X msg 247 139 2;
#X msg 220 404 1;
#X msg 369 375 2;
#X text 502 56 Save State;
#X obj 257 94 tabread BitcrushSettings;
#X obj 271 139 tabread BitcrushSettings;
#X obj 123 433 tabwrite BitcrushSettings;
#X obj 324 404 tabwrite BitcrushSettings;
#X connect 1 0 11 0;
#X connect 2 0 1 1;
#X connect 2 0 22 0;
#X connect 2 0 17 0;
#X connect 3 0 1 2;
#X connect 3 0 23 0;
#X connect 3 0 18 0;
#X connect 6 0 8 0;
#X connect 8 0 2 0;
#X connect 8 0 3 0;
#X connect 10 0 1 0;
#X connect 14 0 16 0;
#X connect 14 0 15 0;
#X connect 15 0 20 0;
#X connect 16 0 21 0;
#X connect 17 0 22 1;
#X connect 18 0 23 1;
#X connect 20 0 2 0;
#X connect 21 0 3 0;
#X coords 0 0 1 1 170 215 1 0 0;
#X restore 456 1129 pd;
#N canvas 733 172 450 300 (subpatch) 1;
#X obj 5 5 cnv 158 158 178 empty empty empty 20 12 0 14 #a8d6ee #5a5a5a
0;
#X obj 10 154 fbdelay~;
#X floatatom 30 127 8 -0.01 3.40282e+38 0 - - - 12;
#X floatatom 98 127 8 -0.01 3.40282e+38 0 - - - 12;
#X obj 29 36 bng 25 250 50 0 empty empty empty 17 7 0 10 #e4e4e4 #5a5a5a
#5a5a5a;
#X text 59 36 Reset;
#X msg 33 70 0;
#X text 35 7 Feedback Delay;
#X text 118 105 Fbk;
#X text 43 105 Dly;
#X obj 5 290 inlet~;
#X obj 107 376 outlet~;
#N canvas 0 50 450 250 (subpatch) 0;
#X text 0 0 plugdatainfo <?xml version="1.0" encoding="UTF-8"?> <PlugDataInfo/>
;
#X coords 0 1 100 -1 1 1 1;
#X restore 0 0 graph;
#N canvas 0 50 450 250 (subpatch) 0;
#X array FeedbackSettings 3 float 3;
#A 0 0 3 1000;
#X coords 0 50000 3 0 106 48 1;
#X restore 713 406 graph;
#X obj 519 286 loadbang;
#X msg 474 346 1;
#X msg 480 372 2;
#X obj 498 346 tabread FeedbackSettings;
#X obj 504 372 tabread FeedbackSettings;
#X msg 518 433 1;
#X msg 652 433 2;
#X text 569 244 Save State;
#X obj 607 462 tabwrite FeedbackSettings;
#X obj 421 462 tabwrite FeedbackSettings;
#X connect 1 0 11 0;
#X connect 2 0 1 1;
#X connect 2 0 19 0;
#X connect 2 0 23 0;
#X connect 3 0 1 2;
#X connect 3 0 20 0;
#X connect 3 0 22 0;
#X connect 4 0 6 0;
#X connect 6 0 2 0;
#X connect 6 0 3 0;
#X connect 10 0 1 0;
#X connect 14 0 16 0;
#X connect 14 0 15 0;
#X connect 15 0 17 0;
#X connect 16 0 18 0;
#X connect 17 0 2 0;
#X connect 18 0 3 0;
#X connect 19 0 23 1;
#X connect 20 0 22 1;
#X coords 0 0 1 1 168 188 1 0 0;
#X restore 260 1129 pd;
#X obj 1015 1207 dac~;
#N canvas 0 50 450 250 (subpatch) 0;
#X array EnvArray 6 float 3;
#A 0 450 10 30 0 450 9;
#X coords 0 1500 6 0 84 58 1;
#X restore 1723 585 graph;
#X obj 1320 527 tabread EnvArray;
#X obj 1248 470 loadbang;
#X obj 1293 1046 tabwrite EnvArray;
#X obj 1169 527 tabread EnvArray;
#X obj 1011 527 tabread EnvArray;
#X obj 1497 530 tabread EnvArray;
#X obj 1147 1046 tabwrite EnvArray;
#X obj 1008 1046 tabwrite EnvArray;
#X obj 1443 1046 tabwrite EnvArray;
#X msg 1105 1017 1;
#X msg 1244 1017 2;
#X msg 1390 1017 3;
#X msg 1540 1017 4;
#X msg 987 527 1;
#X msg 1145 527 2;
#X msg 1296 527 3;
#X msg 1473 530 4;
#X text 1726 457 Save Arrays;
#X msg 237 506 1;
#X obj 258 506 tabread PitchArray;
#X obj 429 470 loadbang;
#X obj 574 506 tabread PitchArray;
#X msg 548 506 2;
#X msg 221 589 1;
#X msg 772 608 2;
#X obj 124 618 tabwrite PitchArray;
#X obj 675 637 tabwrite PitchArray;
#N canvas 0 50 450 250 (subpatch) 0;
#X array PitchArray 4 float 3;
#A 0 1 400 1 0;
#X coords 0 20000 4 0 84 58 1;
#X restore 1725 496 graph;
#X obj 191 589 bng 25 250 50 0 empty empty empty 17 7 0 10 #e4e4e4
#5a5a5a #5a5a5a;
#X obj 742 606 bng 25 250 50 0 empty empty empty 17 7 0 10 #e4e4e4
#5a5a5a #5a5a5a;
#X obj 312 143 tgl 35 0 empty empty empty 17 7 0 10 #e4e4e4 #5a5a5a
#5a5a5a 0 1;
#N canvas 733 172 450 300 MIDIProcessing 0;
#X obj 113 45 notein;
#X text 113 21 MIDI;
#X obj 90 141 mtof;
#X obj 153 141 / 127;
#X floatatom 51 141 5 -3.40282e+38 3.40282e+38 0 - - - 12;
#X floatatom 203 141 5 -3.40282e+38 3.40282e+38 0 - - - 12;
#X floatatom 51 228 6 -3.40282e+38 3.40282e+38 0 - - - 12;
#X floatatom 203 169 5 -3.40282e+38 3.40282e+38 0 - - - 12;
#X obj 147 327 outlet;
#X obj 225 327 outlet;
#N canvas 0 50 450 250 (subpatch) 0;
#X text 0 0 plugdatainfo <?xml version="1.0" encoding="UTF-8"?> <PlugDataInfo/>
;
#X coords 0 1 100 -1 1 1 1;
#X restore 0 0 graph;
#X obj 101 88 poly 10 1;
#X obj 51 327 outlet;
#X text 24 367 Voice Number;
#X text 147 363 Freq;
#X text 235 370 Velocity;
#X connect 0 0 11 0;
#X connect 0 1 11 1;
#X connect 2 0 6 0;
#X connect 2 0 8 0;
#X connect 3 0 7 0;
#X connect 3 0 9 0;
#X connect 11 0 12 0;
#X connect 11 1 4 0;
#X connect 11 1 2 0;
#X connect 11 2 3 0;
#X connect 11 2 5 0;
#X restore 644 72 pd MIDIProcessing;
#N canvas 733 172 450 300 ResetTransfer 0;
#X floatatom 1352 363 5 -3.40282e+38 3.40282e+38 0 - - - 12;
#X obj 1330 329 line;
#X msg 1330 292 0 \, 100 1000 1;
#X obj 1330 407 tabwrite transfer;
#X obj 1322 222 inlet;
#X connect 0 0 3 1;
#X connect 0 0 3 0;
#X connect 1 0 0 0;
#X connect 2 0 1 0;
#X connect 4 0 2 0;
#X restore 1193 337 pd ResetTransfer;
#N canvas 733 172 450 300 ResetTransfer-P1 0;
#X floatatom 1572 370 5 -3.40282e+38 3.40282e+38 0 - - - 12;
#X obj 1550 336 line;
#X msg 1550 299 0 \, 100 1000 1;
#X obj 1550 437 tabwrite transfer-p1;
#X obj 1542 222 inlet;
#X connect 0 0 3 1;
#X connect 0 0 3 0;
#X connect 1 0 0 0;
#X connect 2 0 1 0;
#X connect 4 0 2 0;
#X restore 1413 337 pd ResetTransfer-P1;
#N canvas 733 172 450 300 ResetTransfer-P2 0;
#X floatatom 1804 363 5 -3.40282e+38 3.40282e+38 0 - - - 12;
#X obj 1782 329 line;
#X msg 1782 292 0 \, 100 1000 1;
#X obj 1782 430 tabwrite transfer-p2;
#X obj 1774 222 inlet;
#X connect 0 0 3 1;
#X connect 0 0 3 0;
#X connect 1 0 0 0;
#X connect 2 0 1 0;
#X connect 4 0 2 0;
#X restore 1645 337 pd ResetTransfer-P2;
#N canvas 733 172 450 300 ResetWaveform 0;
#X obj 138 430 tabgen waveform1;
#X msg 138 384 sin 1;
#X obj 130 337 inlet;
#X connect 1 0 0 0;
#X connect 2 0 1 0;
#X restore 369 949 pd ResetWaveform;
#X text 406 879 Waveform;
#X text 416 1106 Effects;
#X text 1012 1136 Output;
#X text 679 47 MIDI In;
#X text 405 444 Pitch Handling;
#N canvas 733 172 450 300 ResetPitch1 0;
#X obj 534 1046 tabwrite pitch1;
#X floatatom 629 979 5 -3.40282e+38 3.40282e+38 0 - - - 12;
#X obj 534 986 bng 25 250 50 0 empty empty empty 17 7 0 10 #e4e4e4
#5a5a5a #5a5a5a;
#X msg 539 1020 0;
#X obj 534 945 line;
#X msg 534 908 0 \, 100 1000 1;
#X obj 526 858 inlet;
#X connect 1 0 0 1;
#X connect 2 0 3 0;
#X connect 3 0 0 0;
#X connect 4 0 1 0;
#X connect 4 0 2 0;
#X connect 5 0 4 0;
#X connect 6 0 5 0;
#X restore 65 390 pd ResetPitch1;
#N canvas 733 172 450 300 ResetPitch2 0;
#X floatatom 1010 971 5 -3.40282e+38 3.40282e+38 0 - - - 12;
#X obj 915 978 bng 25 250 50 0 empty empty empty 17 7 0 10 #e4e4e4
#5a5a5a #5a5a5a;
#X msg 920 1012 0;
#X obj 915 937 line;
#X msg 915 900 0 \, 100 1000 1;
#X obj 915 1038 tabwrite pitch2;
#X obj 929 854 inlet;
#X connect 0 0 5 1;
#X connect 1 0 2 0;
#X connect 2 0 5 0;
#X connect 3 0 0 0;
#X connect 3 0 1 0;
#X connect 4 0 3 0;
#X connect 6 0 4 0;
#X restore 772 378 pd ResetPitch2;
#X text 315 551 Pitch 1 Cycle Freq;
#X text 219 120 Pitch 1 Phase Resetting;
#X text 402 914 Reset Waveform;
#X text 1190 76 Waveform;
#X text 1446 76 Pitch 1;
#X text 1689 76 Pitch 2;
#X obj 649 822 clone SoundPainter_Poly_Core 10;
#X obj 644 106 - 1;
#X obj 285 610 pack f f;
#X obj 553 618 pack f f;
#X obj 654 165 pack f f;
#X obj 753 165 pack f f;
#X msg 959 593 all \$1;
#X msg 1105 593 all \$1;
#X msg 1258 593 all \$1;
#X msg 1446 593 all \$1;
#X msg 424 184 all \$1;
#X floatatom 1011 564 5 -3.40282e+38 3.40282e+38 0 - - - 12;
#X floatatom 1169 558 5 -3.40282e+38 3.40282e+38 0 - - - 12;
#X floatatom 1326 564 5 -0.01 1 0 - - - 12;
#X floatatom 1497 563 5 -3.40282e+38 3.40282e+38 0 - - - 12;
#N canvas 733 172 450 300 (subpatch) 1;
#X obj 5 5 cnv 158 158 178 empty empty empty 20 12 0 14 #a8d6ee #5a5a5a
0;
#X obj 10 154 fbdelay~;
#X floatatom 30 127 8 -0.01 3.40282e+38 0 - - - 12;
#X floatatom 98 127 8 -0.01 3.40282e+38 0 - - - 12;
#X obj 29 36 bng 25 250 50 0 empty empty empty 17 7 0 10 #e4e4e4 #5a5a5a
#5a5a5a;
#X text 59 36 Reset;
#X msg 33 70 0;
#X text 118 105 Fbk;
#X text 43 105 Dly;
#X obj 5 290 inlet~;
#X obj 107 376 outlet~;
#N canvas 0 50 450 250 (subpatch) 0;
#X text 0 0 plugdatainfo <?xml version="1.0" encoding="UTF-8"?> <PlugDataInfo/>
;
#X coords 0 1 100 -1 1 1 1;
#X restore 0 0 graph;
#N canvas 0 50 450 250 (subpatch) 0;
#X array FeedbackSettings2 3 float 3;
#A 0 0 0 0;
#X coords 0 50000 3 0 106 48 1;
#X restore 717 329 graph;
#X obj 667 159 loadbang;
#X msg 622 219 1;
#X msg 616 253 2;
#X msg 518 433 1;
#X msg 652 433 2;
#X text 717 117 Save State;
#X text 35 7 Feedback Delay 2;
#X obj 646 219 tabread FeedbackSettings2;
#X obj 652 245 tabread FeedbackSettings2;
#X obj 607 462 tabwrite FeedbackSettings2;
#X obj 421 462 tabwrite FeedbackSettings2;
#X connect 1 0 10 0;
#X connect 2 0 1 1;
#X connect 2 0 16 0;
#X connect 2 0 23 0;
#X connect 3 0 1 2;
#X connect 3 0 17 0;
#X connect 3 0 22 0;
#X connect 4 0 6 0;
#X connect 6 0 2 0;
#X connect 6 0 3 0;
#X connect 9 0 1 0;
#X connect 13 0 15 0;
#X connect 13 0 14 0;
#X connect 14 0 20 0;
#X connect 15 0 21 0;
#X connect 16 0 23 1;
#X connect 17 0 22 1;
#X connect 20 0 2 0;
#X connect 21 0 3 0;
#X coords 0 0 1 1 168 188 1 0 0;
#X restore 670 1129 pd;
#N canvas 0 50 450 250 (subpatch) 0;
#X array PhaseResetArray 2 float 1;
#A 0 0 0;
#X coords 0 1 1 0 106 71 1;
#X restore 1714 676 graph;
#X obj 312 84 tabread PhaseResetArray;
#X obj 313 16 loadbang;
#X msg 316 48 1;
#X msg 349 189 1;
#X obj 215 223 tabwrite PhaseResetArray;
#X connect 12 0 22 0;
#X connect 12 0 81 0;
#X connect 13 0 65 0;
#X connect 13 0 68 0;
#X connect 13 0 91 1;
#X connect 17 0 66 0;
#X connect 17 0 69 0;
#X connect 17 0 92 1;
#X connect 20 0 38 0;
#X connect 20 0 38 1;
#X connect 21 0 23 0;
#X connect 21 0 82 0;
#X connect 22 0 13 0;
#X connect 23 0 17 0;
#X connect 26 0 72 0;
#X connect 29 0 73 0;
#X connect 30 0 74 0;
#X connect 35 0 75 0;
#X connect 36 0 104 0;
#X connect 37 0 36 0;
#X connect 40 0 102 0;
#X connect 41 0 55 0;
#X connect 41 0 54 0;
#X connect 41 0 53 0;
#X connect 41 0 56 0;
#X connect 43 0 101 0;
#X connect 44 0 100 0;
#X connect 45 0 103 0;
#X connect 49 0 47 1;
#X connect 50 0 46 1;
#X connect 51 0 42 1;
#X connect 52 0 48 1;
#X connect 53 0 44 0;
#X connect 54 0 43 0;
#X connect 55 0 40 0;
#X connect 56 0 45 0;
#X connect 58 0 59 0;
#X connect 59 0 13 0;
#X connect 60 0 58 0;
#X connect 60 0 62 0;
#X connect 61 0 17 0;
#X connect 62 0 61 0;
#X connect 63 0 65 1;
#X connect 64 0 66 1;
#X connect 68 0 63 0;
#X connect 69 0 64 0;
#X connect 70 0 99 0;
#X connect 70 0 109 0;
#X connect 70 0 110 0;
#X connect 71 0 90 0;
#X connect 71 1 93 1;
#X connect 71 2 94 1;
#X connect 89 0 37 0;
#X connect 90 0 91 0;
#X connect 90 0 92 0;
#X connect 90 0 94 0;
#X connect 90 0 93 0;
#X connect 91 0 89 1;
#X connect 92 0 89 2;
#X connect 93 0 89 3;
#X connect 94 0 89 4;
#X connect 95 0 89 5;
#X connect 96 0 89 6;
#X connect 97 0 89 7;
#X connect 98 0 89 8;
#X connect 99 0 89 0;
#X connect 100 0 95 0;
#X connect 100 0 47 0;
#X connect 100 0 49 0;
#X connect 101 0 96 0;
#X connect 101 0 46 0;
#X connect 101 0 50 0;
#X connect 102 0 97 0;
#X connect 102 0 42 0;
#X connect 102 0 51 0;
#X connect 103 0 98 0;
#X connect 103 0 48 0;
#X connect 103 0 52 0;
#X connect 104 0 20 0;
#X connect 106 0 70 0;
#X connect 107 0 108 0;
#X connect 108 0 106 0;
#X connect 109 0 110 1;
#X coords 0 0 1 1 1782 274 0;
