#N canvas 827 239 527 327 12;
#X obj 191 829 cnv 481 481 204 empty empty empty 20 12 0 14 #d399d1
#5a5a5a 0;
#X obj 215 113 cnv 162 162 125 empty empty empty 20 12 0 14 #99ced3
#5a5a5a 0;
#X obj 53 259 cnv 847 847 487 empty empty empty 20 12 0 14 #99aed3
#5a5a5a 0;
#X obj 948 448 cnv 712 712 422 empty empty empty 20 12 0 14 #99d3c3
#5a5a5a 0;
#N canvas 0 50 450 250 (subpatch) 0;
#X text 0 0 plugdatainfo <?xml version="1.0" encoding="UTF-8"?> <PlugDataInfo/>
;
#X coords 0 1 100 -1 1 1 1;
#X restore 0 0 graph;
#X floatatom 258 552 7 0.01 3.40282e+38 0 - - - 12;
#X floatatom 574 563 5 0.01 3.40282e+38 0 - - - 12;
#X obj 256 639 numbox~ 4 16 100 #e4e4e4 #5a5a5a 10 0 0 0;
#X obj 574 639 numbox~ 4 16 100 #e4e4e4 #5a5a5a 10 0 0 0;
#X obj 441 660 *~;
#X text 615 562 Pitch 2 Cycle Freq;
#X obj 441 692 clip~ 0 20000;
#X obj 465 987 *~, f 27;
#N canvas 733 172 450 300 RestSwitch 0;
#X msg 114 157 0;
#X obj 111 128 sel 1;
#X obj 63 111 f;
#X obj 56 79 bng 25 250 50 0 empty empty empty 17 7 0 10 #e4e4e4 #5a5a5a
#5a5a5a;
#X obj 43 37 inlet;
#X obj 124 36 inlet;
#X obj 51 209 outlet;
#N canvas 0 50 450 250 (subpatch) 0;
#X text 0 0 plugdatainfo <?xml version="1.0" encoding="UTF-8"?> <PlugDataInfo/>
;
#X coords 0 1 100 -1 1 1 1;
#X restore 0 0 graph;
#X obj 104 68 tgl 25 0 empty empty empty 17 7 0 10 #e4e4e4 #5a5a5a
#5a5a5a 0 1;
#X floatatom 22 112 5 -3.40282e+38 3.40282e+38 0 - - - 12;
#X connect 0 0 6 0;
#X connect 1 0 0 0;
#X connect 2 0 1 0;
#X connect 2 0 9 0;
#X connect 3 0 2 0;
#X connect 4 0 3 0;
#X connect 5 0 8 0;
#X connect 8 0 2 1;
#X restore 242 198 pd RestSwitch;
#N canvas 733 172 450 300 PitchModOsc2 0;
#X obj 654 310 *~ 100;
#X obj 654 273 phasor~ 100;
#X obj 654 383 tabread4~ pitch2;
#X obj 658 414 +~ 1;
#X obj 654 348 tabread4~ transfer-p2;
#X obj 645 227 inlet~;
#X obj 658 469 outlet~;
#N canvas 0 50 450 250 (subpatch) 0;
#X text 0 0 plugdatainfo <?xml version="1.0" encoding="UTF-8"?> <PlugDataInfo/>
;
#X coords 0 1 100 -1 1 1 1;
#X restore 0 0 graph;
#X connect 0 0 4 0;
#X connect 1 0 0 0;
#X connect 2 0 3 0;
#X connect 3 0 6 0;
#X connect 4 0 2 0;
#X connect 5 0 1 0;
#X restore 574 599 pd PitchModOsc2;
#N canvas 733 172 450 300 PitchModOsc1 0;
#X obj 350 315 *~ 100;
#X obj 344 377 tabread4~ pitch1;
#X obj 348 409 *~ 440;
#X obj 350 282 phasor~ 100;
#X obj 344 345 tabread4~ transfer-p1;
#X text 415 443 Base Freq;
#X obj 348 444 +~ 440;
#X obj 342 234 inlet~;
#X obj 479 221 inlet;
#X obj 406 216 inlet;
#X obj 340 469 outlet~;
#N canvas 0 50 450 250 (subpatch) 0;
#X text 0 0 plugdatainfo <?xml version="1.0" encoding="UTF-8"?> <PlugDataInfo/>
;
#X coords 0 1 100 -1 1 1 1;
#X restore 0 0 graph;
#X connect 0 0 4 0;
#X connect 1 0 2 0;
#X connect 2 0 6 0;
#X connect 3 0 0 0;
#X connect 4 0 1 0;
#X connect 6 0 10 0;
#X connect 7 0 3 0;
#X connect 8 0 6 1;
#X connect 9 0 3 1;
#X restore 258 599 pd PitchModOsc1;
#N canvas 733 172 450 300 Envelope 1;
#X obj 160 138 adsr~ 10 30 0.8 500;
#X floatatom 107 72 7 0.001 1500 0 - - - 12;
#X floatatom 169 72 5 0.001 1500 0 - - - 12;
#X floatatom 235 72 5 0.001 1 0 - - - 12;
#X floatatom 291 72 5 0.001 1500 0 - - - 12;
#X text 175 13 ENVELOPE;
#X obj 107 40 inlet;
#X obj 21 40 inlet~;
#X obj 169 40 inlet;
#X obj 235 40 inlet;
#X obj 288 40 inlet;
#X obj 160 190 outlet;
#X obj 17 190 outlet~;
#X obj 233 189 outlet;
#X obj 99 190 outlet;
#X obj 303 190 outlet;
#X obj 362 190 outlet;
#N canvas 0 50 450 250 (subpatch) 0;
#X text 0 0 plugdatainfo <?xml version="1.0" encoding="UTF-8"?> <PlugDataInfo/>
;
#X coords 0 1 100 -1 1 1 1;
#X restore 0 0 graph;
#X connect 0 0 12 0;
#X connect 0 1 14 0;
#X connect 1 0 0 1;
#X connect 1 0 11 0;
#X connect 2 0 0 2;
#X connect 2 0 13 0;
#X connect 3 0 0 3;
#X connect 3 0 15 0;
#X connect 4 0 0 4;
#X connect 4 0 16 0;
#X connect 6 0 1 0;
#X connect 7 0 0 0;
#X connect 8 0 2 0;
#X connect 9 0 3 0;
#X connect 10 0 4 0;
#X coords 0 0 1 1 397 129 1;
#X restore 1021 612 pd Envelope;
#N canvas 733 172 450 300 WaveformGenerator 0;
#X obj 65 315 phasor~ 440;
#X obj 65 349 *~ 100;
#X obj 65 274 numbox~ 4 16 100 #e4e4e4 #5a5a5a 10 0 0 0;
#X obj 65 425 tabread4~ waveform1;
#X text 65 241 Current Frequency;
#X obj 65 388 tabread4~ transfer;
#X obj 636 522 inlet~;
#X obj 225 1119 outlet~;
#N canvas 0 50 450 250 (subpatch) 0;
#X text 0 0 plugdatainfo <?xml version="1.0" encoding="UTF-8"?> <PlugDataInfo/>
;
#X coords 0 1 100 -1 1 1 1;
#X restore 0 0 graph;
#X connect 0 0 1 0;
#X connect 1 0 5 0;
#X connect 2 0 0 0;
#X connect 3 0 7 0;
#X connect 5 0 3 0;
#X connect 6 0 2 0;
#X restore 465 951 pd WaveformGenerator;
#X text 315 551 Pitch 1 Cycle Freq;
#X text 219 120 Pitch 1 Phase Resetting;
#X obj 461 1052 outlet~;
#X obj 1118 84 inlet;
#X obj 1216 84 inlet;
#X obj 1294 84 inlet;
#X obj 1387 84 inlet;
#X text 1239 26 ENV;
#X obj 938 84 inlet;
#X text 920 47 MIDI Velocity;
#X obj 765 84 inlet;
#X text 754 54 MIDI Pitch;
#X obj 277 74 inlet;
#X text 237 45 Phase Reset Switch;
#X obj 591 84 inlet;
#X obj 470 84 inlet;
#X text 463 33 Pitch 1;
#X text 591 33 Pitch 2;
#X text 456 1126 OUT;
#X connect 5 0 15 0;
#X connect 6 0 14 0;
#X connect 7 0 9 0;
#X connect 8 0 9 1;
#X connect 9 0 11 0;
#X connect 11 0 17 0;
#X connect 12 0 20 0;
#X connect 13 0 15 1;
#X connect 14 0 8 0;
#X connect 15 0 7 0;
#X connect 16 0 12 1;
#X connect 16 1 13 0;
#X connect 17 0 12 0;
#X connect 21 0 16 1;
#X connect 22 0 16 2;
#X connect 23 0 16 3;
#X connect 24 0 16 4;
#X connect 26 0 16 0;
#X connect 28 0 15 2;
#X connect 30 0 13 1;
#X connect 32 0 6 0;
#X connect 33 0 5 0;
#X coords 0 0 1 1 1782 274 0;
